<svg width="386" height="131" viewBox="0 0 386 131" fill="none" xmlns="http://www.w3.org/2000/svg">
<path d="M9.408 42.226C8.904 42.254 8.484 42.016 8.148 41.512C7.812 41.008 7.658 40.588 7.686 40.252C7.714 39.804 7.84 39.16 8.064 38.32C8.288 37.48 8.54 36.626 8.82 35.758C9.1 34.89 9.352 34.204 9.576 33.7C9.688 33.252 9.786 32.86 9.87 32.524C9.982 32.16 10.052 31.922 10.08 31.81C10.164 31.698 10.29 31.404 10.458 30.928C10.654 30.452 10.808 29.99 10.92 29.542C10.976 29.318 11.088 28.898 11.256 28.282C11.452 27.638 11.676 26.896 11.928 26.056C12.208 25.216 12.474 24.39 12.726 23.578C13.006 22.766 13.244 22.052 13.44 21.436C13.636 20.82 13.762 20.414 13.818 20.218C14.042 19.882 14.21 19.56 14.322 19.252C14.434 18.944 14.504 18.734 14.532 18.622C14.7 18.51 14.798 18.37 14.826 18.202C14.854 18.006 14.868 17.852 14.868 17.74C14.868 17.6 14.91 17.488 14.994 17.404C15.106 17.32 15.162 17.222 15.162 17.11C15.274 17.026 15.344 17.012 15.372 17.068C15.4 17.124 15.484 17.082 15.624 16.942L15.834 15.514L19.572 15.472C19.516 15.808 19.432 16.228 19.32 16.732C19.208 17.208 18.942 17.852 18.522 18.664C18.382 19.224 18.214 19.728 18.018 20.176C17.85 20.624 17.78 20.918 17.808 21.058C17.752 21.114 17.626 21.394 17.43 21.898C17.262 22.402 17.052 23.018 16.8 23.746C16.576 24.474 16.338 25.202 16.086 25.93C15.862 26.658 15.652 27.302 15.456 27.862C15.288 28.394 15.176 28.73 15.12 28.87C14.896 29.318 14.644 29.976 14.364 30.844C14.084 31.712 13.664 32.888 13.104 34.372C12.88 34.82 12.6 35.492 12.264 36.388C11.956 37.284 11.704 38.096 11.508 38.824C11.2 39.916 10.92 40.7 10.668 41.176C10.444 41.652 10.234 41.932 10.038 42.016C9.842 42.128 9.632 42.198 9.408 42.226ZM9.786 17.53C8.638 17.642 7.854 17.502 7.434 17.11C7.042 16.718 6.902 16.298 7.014 15.85C7.098 15.514 7.294 15.234 7.602 15.01C7.938 14.758 8.54 14.548 9.408 14.38C9.716 14.324 10.108 14.254 10.584 14.17C11.088 14.086 11.564 14.002 12.012 13.918C12.936 13.806 13.692 13.708 14.28 13.624C14.896 13.54 15.526 13.47 16.17 13.414C16.814 13.358 17.626 13.302 18.606 13.246C19.418 13.19 20.104 13.148 20.664 13.12C21.252 13.064 21.546 13.036 21.546 13.036C21.63 13.036 21.924 13.064 22.428 13.12C22.932 13.176 23.478 13.246 24.066 13.33C24.654 13.414 25.088 13.512 25.368 13.624C26.012 13.764 26.53 14.016 26.922 14.38C27.314 14.744 27.566 15.164 27.678 15.64C27.762 15.976 27.762 16.242 27.678 16.438C27.594 16.606 27.44 16.746 27.216 16.858C26.572 17.054 26.04 17.222 25.62 17.362C25.228 17.474 24.836 17.46 24.444 17.32C24.304 17.18 24.136 17.054 23.94 16.942C23.772 16.83 23.464 16.746 23.016 16.69C22.596 16.606 21.924 16.536 21 16.48C20.216 16.564 19.53 16.606 18.942 16.606C18.354 16.606 18.06 16.676 18.06 16.816L15.582 16.942L13.524 17.152C13.244 17.18 12.852 17.222 12.348 17.278C11.844 17.306 11.354 17.348 10.878 17.404C10.402 17.432 10.038 17.474 9.786 17.53ZM25.8303 43.864C25.8303 43.864 25.6483 43.822 25.2843 43.738C24.9483 43.682 24.6683 43.668 24.4443 43.696C23.9963 43.612 23.5483 43.374 23.1003 42.982C22.6523 42.618 22.4703 42.212 22.5543 41.764C22.6663 41.652 22.7363 41.414 22.7643 41.05C22.8203 40.686 22.8483 40.392 22.8483 40.168C22.9323 39.944 22.9883 39.776 23.0163 39.664C23.0443 39.552 23.1143 39.272 23.2263 38.824C23.2823 38.348 23.3943 37.69 23.5623 36.85C23.7583 35.982 23.9683 35.058 24.1923 34.078C24.4163 33.07 24.6403 32.118 24.8643 31.222C25.1163 30.298 25.3263 29.528 25.4943 28.912C25.6903 28.296 25.8303 27.946 25.9143 27.862C25.9143 27.862 25.9143 27.82 25.9143 27.736C25.9143 27.624 25.9003 27.512 25.8723 27.4C25.8723 27.4 25.8863 27.274 25.9143 27.022C25.9703 26.742 26.0963 26.42 26.2923 26.056C26.4043 25.748 26.4883 25.412 26.5443 25.048C26.6283 24.684 26.6703 24.446 26.6703 24.334C26.7823 24.194 26.9223 23.858 27.0903 23.326C27.2863 22.766 27.4823 22.206 27.6783 21.646C27.8183 21.198 27.9723 20.722 28.1403 20.218C28.3363 19.714 28.5043 19.28 28.6443 18.916C28.8123 18.524 28.8963 18.328 28.8963 18.328C28.8963 18.216 28.8963 18.16 28.8963 18.16C28.8963 18.132 28.8963 18.118 28.8963 18.118C28.9803 18.006 29.2183 17.432 29.6103 16.396C30.0303 15.36 30.5903 14.016 31.2903 12.364C31.4023 12.14 31.5283 11.888 31.6683 11.608C31.8363 11.328 31.9203 11.132 31.9203 11.02C32.0603 10.796 32.3123 10.684 32.6763 10.684C33.0403 10.684 33.4183 10.768 33.8103 10.936C34.2023 11.076 34.4683 11.3 34.6083 11.608L35.5743 12.28L34.1463 15.346C33.7543 16.13 33.4183 16.858 33.1383 17.53C32.8583 18.174 32.7183 18.552 32.7183 18.664C32.7183 18.664 32.6623 18.832 32.5503 19.168C32.4383 19.504 32.2983 19.938 32.1303 20.47C31.9903 20.974 31.8503 21.478 31.7103 21.982C31.4303 22.878 31.1643 23.62 30.9123 24.208C30.6883 24.796 30.5763 25.146 30.5763 25.258C30.5763 25.202 30.8703 25.16 31.4583 25.132C32.0463 25.076 32.7743 25.034 33.6423 25.006C34.5383 24.95 35.4483 24.908 36.3723 24.88C37.3243 24.824 38.1643 24.768 38.8923 24.712C39.6483 24.656 40.1663 24.6 40.4463 24.544L42.5883 24.25L43.5963 20.512C43.7923 19.7 44.0443 18.734 44.3523 17.614C44.6883 16.494 44.9823 15.528 45.2343 14.716C45.6263 13.4 46.0743 12.448 46.5783 11.86C47.0823 11.244 47.5023 10.936 47.8383 10.936C48.3143 10.936 48.6923 11.132 48.9723 11.524C49.2523 11.916 49.4483 12.224 49.5603 12.448C49.9243 12.728 50.0923 13.064 50.0643 13.456C50.0643 13.848 49.8543 14.38 49.4343 15.052C49.0423 15.808 48.7063 16.634 48.4263 17.53C48.1743 18.426 47.9363 19.154 47.7123 19.714C47.7403 20.05 47.7123 20.33 47.6283 20.554C47.5443 20.75 47.4463 20.918 47.3343 21.058C47.2783 21.114 47.1663 21.324 46.9983 21.688C46.8583 22.052 46.7183 22.416 46.5783 22.78C46.4663 23.144 46.4103 23.368 46.4103 23.452C46.4383 23.648 46.4103 23.9 46.3263 24.208C46.2423 24.488 46.1443 24.684 46.0323 24.796C46.0043 24.964 45.9063 25.398 45.7383 26.098C45.5703 26.77 45.3603 27.568 45.1083 28.492C44.8843 29.388 44.6463 30.27 44.3943 31.138C44.1703 32.006 43.9463 32.72 43.7223 33.28C43.7503 33.476 43.6943 33.728 43.5543 34.036C43.4143 34.316 43.3583 34.568 43.3863 34.792C43.2743 35.128 43.1343 35.562 42.9663 36.094C42.8263 36.598 42.7703 36.92 42.7983 37.06C42.6863 37.704 42.5323 38.418 42.3363 39.202C42.1403 39.986 41.9723 40.672 41.8323 41.26C41.6923 41.848 41.6223 42.184 41.6223 42.268C41.5383 42.38 41.2863 42.394 40.8663 42.31C40.4743 42.254 40.1243 42.17 39.8163 42.058C39.2843 41.75 38.8783 41.316 38.5983 40.756C38.3463 40.224 38.3603 39.636 38.6403 38.992C38.7803 38.768 38.9343 38.208 39.1023 37.312C39.2983 36.416 39.4943 35.534 39.6903 34.666C39.8303 34.246 39.9703 33.7 40.1103 33.028C40.2503 32.356 40.3763 31.684 40.4883 31.012C40.6283 30.34 40.7403 29.766 40.8243 29.29C40.9363 28.814 41.0203 28.548 41.0763 28.492C41.0763 28.38 41.0763 28.282 41.0763 28.198C41.0763 28.114 41.0763 28.072 41.0763 28.072C41.0203 28.016 40.7123 27.988 40.1523 27.988C39.5923 27.96 38.8923 27.96 38.0523 27.988C37.2123 28.016 36.3163 28.072 35.3643 28.156C34.4403 28.24 33.5723 28.352 32.7603 28.492C32.4523 28.52 32.0463 28.534 31.5423 28.534C31.0383 28.534 30.6743 28.548 30.4503 28.576C30.1423 28.576 29.8763 28.59 29.6523 28.618C29.4563 28.618 29.3583 28.618 29.3583 28.618C29.3303 28.702 29.2463 28.982 29.1063 29.458C28.9663 29.934 28.8123 30.508 28.6443 31.18C28.4763 31.824 28.3083 32.496 28.1403 33.196C27.9723 33.896 27.8183 34.54 27.6783 35.128C27.5663 35.688 27.4963 36.108 27.4683 36.388C27.3843 36.892 27.2583 37.536 27.0903 38.32C26.9223 39.076 26.7403 39.846 26.5443 40.63C26.3763 41.414 26.2223 42.1 26.0823 42.688C25.9703 43.304 25.8863 43.696 25.8303 43.864ZM53.3505 41.638C52.4825 41.582 51.6145 41.26 50.7465 40.672C49.8785 40.112 49.0805 39.58 48.3525 39.076C47.8765 38.6 47.5125 38.096 47.2605 37.564C47.0085 37.004 46.7985 36.276 46.6305 35.38C46.5185 34.848 46.5185 34.148 46.6305 33.28C46.7425 32.412 46.9245 31.544 47.1765 30.676C47.4285 29.78 47.6665 29.08 47.8905 28.576C48.2265 27.792 48.6465 26.952 49.1505 26.056C49.6825 25.132 50.2005 24.264 50.7045 23.452C51.2365 22.612 51.6565 21.94 51.9645 21.436C52.1605 21.24 52.2445 21.142 52.2165 21.142C52.2165 21.114 52.2165 21.1 52.2165 21.1C52.2165 20.96 52.3565 20.61 52.6365 20.05C52.9445 19.462 53.2105 18.944 53.4345 18.496C53.8545 18.048 54.0925 17.684 54.1485 17.404C54.2045 17.124 54.1625 16.9 54.0225 16.732C53.9665 16.62 54.0785 16.382 54.3585 16.018C54.6665 15.654 55.0865 15.248 55.6185 14.8C56.1505 14.324 56.7385 13.904 57.3825 13.54C58.0545 13.008 58.6985 12.728 59.3145 12.7C59.9585 12.644 60.3365 12.77 60.4485 13.078C60.4485 13.162 60.6025 13.19 60.9105 13.162C61.2465 13.106 61.6245 13.036 62.0445 12.952C62.4925 12.84 62.8845 12.756 63.2205 12.7C63.3605 12.532 63.6825 12.406 64.1865 12.322C64.7185 12.21 65.3345 12.112 66.0345 12.028C66.3985 12.056 66.8045 12.07 67.2525 12.07C67.7005 12.042 68.0925 12.014 68.4285 11.986C68.7925 11.958 68.9745 11.944 68.9745 11.944C69.1705 11.888 69.4505 12.014 69.8145 12.322C70.2065 12.602 70.5145 12.994 70.7385 13.498C70.9345 14.002 70.7665 14.436 70.2345 14.8C69.7025 15.164 68.8625 15.416 67.7145 15.556C66.8745 15.668 66.2165 15.766 65.7405 15.85C65.2925 15.906 64.8025 15.99 64.2705 16.102C63.7665 16.186 63.0245 16.34 62.0445 16.564C61.3445 16.704 60.7565 16.816 60.2805 16.9C59.8045 16.984 59.3845 17.152 59.0205 17.404C58.6845 17.656 58.3065 18.104 57.8865 18.748C57.6905 18.888 57.4385 19.252 57.1305 19.84C56.8225 20.428 56.5145 21.016 56.2065 21.604C55.4225 22.696 54.8345 23.508 54.4425 24.04C54.0785 24.544 53.9525 24.866 54.0645 25.006C54.0645 25.006 54.2605 25.048 54.6525 25.132C55.0445 25.216 55.2965 25.258 55.4085 25.258C55.6885 25.118 56.0245 25.02 56.4165 24.964C56.8365 24.908 57.1725 24.852 57.4245 24.796C59.1605 24.348 60.4345 24.026 61.2465 23.83C62.0865 23.606 62.6745 23.452 63.0105 23.368C63.3745 23.284 63.6965 23.228 63.9765 23.2C64.3685 22.892 64.7605 22.92 65.1525 23.284C65.5725 23.62 65.8665 24.026 66.0345 24.502C66.2305 25.062 66.2305 25.496 66.0345 25.804C65.8385 26.112 65.4045 26.364 64.7325 26.56C64.0885 26.756 63.1645 26.994 61.9605 27.274C60.7565 27.526 59.2445 27.904 57.4245 28.408C55.8845 28.856 54.6385 29.122 53.6865 29.206C52.7345 29.29 52.2865 29.052 52.3425 28.492C52.1465 28.38 51.9225 28.492 51.6705 28.828C51.4465 29.136 51.2365 29.57 51.0405 30.13C50.8445 30.69 50.6625 31.292 50.4945 31.936C50.3545 32.58 50.2705 33.182 50.2425 33.742C50.2145 34.302 50.2565 34.736 50.3685 35.044C50.5925 35.688 50.9425 36.248 51.4185 36.724C51.9225 37.172 52.6505 37.536 53.6025 37.816C54.1625 37.844 54.7085 37.886 55.2405 37.942C55.7725 37.998 56.3745 37.886 57.0465 37.606C58.6985 37.326 59.8465 37.032 60.4905 36.724C61.1345 36.416 61.5265 36.206 61.6665 36.094C61.8905 35.982 62.0305 35.87 62.0865 35.758C62.1705 35.646 62.2825 35.59 62.4225 35.59C62.3385 35.73 62.3665 35.73 62.5065 35.59C62.6465 35.45 62.8705 35.254 63.1785 35.002C63.7665 34.498 64.3545 34.19 64.9425 34.078C65.5305 33.966 66.0205 33.966 66.4125 34.078C66.8045 34.162 67.0145 34.274 67.0425 34.414C67.2105 34.694 67.1265 35.142 66.7905 35.758C66.4545 36.346 65.9365 36.976 65.2365 37.648C64.5645 38.32 63.7665 38.922 62.8425 39.454C61.3585 40.238 59.7485 40.784 58.0125 41.092C56.2765 41.428 54.7225 41.61 53.3505 41.638ZM67.5 126.8C67.2333 127.067 66.6 127.133 65.6 127C64.6 126.933 63.8 126.467 63.2 125.6C62.7333 124.667 62.4667 123.6 62.4 122.4C62.3333 121.2 62.3333 119.533 62.4 117.4C62.8 115.067 63.4667 112 64.4 108.2C65.3333 104.4 66.3667 100.167 67.5 95.5C68.7 90.7667 69.9 85.9333 71.1 81C71.7 78.6667 72.1667 76.7 72.5 75.1C72.9 73.5 73.1667 72.3 73.3 71.5C73.5 70.6333 73.6 70.2 73.6 70.2C73.5333 70.3333 73.4333 70.4667 73.3 70.6C73.2333 70.7333 73.1667 70.8667 73.1 71C73.0333 71.1333 72.9667 71.2667 72.9 71.4C72.9 71.4 72.7667 71.6333 72.5 72.1C72.3 72.5667 71.8333 73.3667 71.1 74.5C70.5667 75.3 70.0667 76.2333 69.6 77.3C69.1333 78.3667 68.3333 79.7667 67.2 81.5C66.1333 83.5 64.9333 85.8 63.6 88.4C62.2667 91 61.1333 93.0667 60.2 94.6C59.7333 95.3333 59.3 95.9667 58.9 96.5C58.5667 97.0333 58.3333 97.4667 58.2 97.8C57.9333 98.5333 57.5 99.4333 56.9 100.5C56.3 101.567 55.6 102.6 54.8 103.6C54.4 104.2 53.8667 104.9 53.2 105.7C52.6 106.5 52.0667 107.233 51.6 107.9C51.1333 108.5 50.9 108.8 50.9 108.8C50.7667 109.2 50.3333 109.833 49.6 110.7C48.8667 111.567 47.9667 112.533 46.9 113.6C45.9 114.6 44.8667 115.533 43.8 116.4C41.4667 118.267 39.5333 119.433 38 119.9C36.5333 120.367 34.8333 119.8 32.9 118.2C32.0333 117.133 31.3333 116.067 30.8 115C30.2667 113.867 30 112.333 30 110.4C30 108.467 30.3333 105.767 31 102.3C31.4667 100.1 31.9667 97.7667 32.5 95.3C33.1 92.8333 33.7 90.4667 34.3 88.2C34.9 85.8667 35.4333 83.8667 35.9 82.2C36.4333 80.4667 36.8 79.2667 37 78.6C37.2 76.9333 37.2333 76.0667 37.1 76C36.9667 75.8667 36.6333 76.2333 36.1 77.1C35.6333 77.8333 34.7667 79.3667 33.5 81.7C32.2333 84.0333 30.8 86.7667 29.2 89.9C27.6667 93.0333 26.1667 96.1667 24.7 99.3C21.9667 104.367 19.6667 108.6 17.8 112C15.9333 115.4 14.4 118.133 13.2 120.2C12 122.2 11.0667 123.7 10.4 124.7C9.8 125.767 9.33333 126.5 9 126.9C8.73333 127.367 8.53333 127.667 8.4 127.8C7.4 127.733 6.53333 127.267 5.8 126.4C5.06667 125.533 4.46667 124.5 4 123.3C3.86667 122.633 3.76667 121.933 3.7 121.2C3.63333 120.467 3.7 119.667 3.9 118.8C4.16667 117.867 4.56667 116.867 5.1 115.8C5.96667 114.067 6.8 112.6 7.6 111.4C8.4 110.2 8.9 109.467 9.1 109.2C9.43333 108.733 9.7 108.233 9.9 107.7C10.1 107.167 10.2333 106.667 10.3 106.2C10.6333 105.8 11.1333 104.967 11.8 103.7C12.5333 102.433 13.2667 101.067 14 99.6C14.5333 98.7333 15.2667 97.5333 16.2 96C17.1333 94.4 18.1333 92.7 19.2 90.9C20.2667 89.0333 21.2 87.3333 22 85.8C24.9333 80.5333 27.2667 76.3333 29 73.2C30.7333 70 31.9667 67.9667 32.7 67.1C33.1667 66.7667 33.5667 66.1333 33.9 65.2C34.3 64.2 34.6333 63.4667 34.9 63C35.8333 61.1333 36.7667 59.6 37.7 58.4C38.7 57.1333 39.5667 56.5 40.3 56.5C40.8333 56.5 41.5 56.7 42.3 57.1C43.1667 57.5 44 58.0667 44.8 58.8C45.5333 59.6667 46.2 60.8333 46.8 62.3C47.4667 63.7 47.6 65.5667 47.2 67.9C47.1333 68.9667 46.9667 70.2667 46.7 71.8C46.4333 73.2667 46.1667 74.7333 45.9 76.2C45.6333 77.6667 45.3667 78.9 45.1 79.9C44.5667 82.9 43.9667 85.7667 43.3 88.5C42.7 91.1667 42.1333 93.6333 41.6 95.9C41.0667 98.1667 40.6333 100.167 40.3 101.9C39.9667 103.567 39.7333 104.933 39.6 106C39.5333 107.067 39.6667 107.767 40 108.1C40.2 108.167 40.4667 108.1 40.8 107.9C41.2 107.633 41.5 107.367 41.7 107.1C42.1 106.567 42.4667 106.033 42.8 105.5C43.1333 104.967 43.5667 104.3 44.1 103.5C45.1667 102.033 46.2667 100.433 47.4 98.7C48.6 96.9 50 94.7 51.6 92.1C53.2667 89.4333 55.2333 86.1667 57.5 82.3C59.7667 78.3667 62.5333 73.5 65.8 67.7C67.3333 65.3667 68.8 63.0333 70.2 60.7C71.6 58.3667 72.8667 56.5667 74 55.3C75 54.2333 76.2333 53.8667 77.7 54.2C79.2333 54.5333 80.6333 55.3667 81.9 56.7C83.1667 58.0333 83.8667 59.6667 84 61.6C84.0667 62.5333 83.8667 64.2 83.4 66.6C83 68.9333 82.4333 71.5667 81.7 74.5C80.9667 77.4333 80.1333 80.3 79.2 83.1C79 84.2333 78.6667 85.7333 78.2 87.6C77.7333 89.4667 77.2333 91.3667 76.7 93.3C76.1667 95.2333 75.6667 96.9667 75.2 98.5C74.7333 100.767 74.3333 102.567 74 103.9C73.7333 105.233 73.6 106.767 73.6 108.5C73 109.567 72.6 111.1 72.4 113.1C72.2 115.1 72.1 117.167 72.1 119.3C71.8333 121.9 71.2667 123.733 70.4 124.8C69.6 125.867 69.0667 126.367 68.8 126.3C68.2667 126.1 67.8333 126.267 67.5 126.8ZM96.7516 125.9C94.6849 125.767 92.6182 125 90.5516 123.6C88.4849 122.267 86.5849 121 84.8516 119.8C83.7182 118.667 82.8516 117.467 82.2516 116.2C81.6516 114.867 81.1516 113.133 80.7516 111C80.4849 109.733 80.4849 108.067 80.7516 106C81.0182 103.933 81.4516 101.867 82.0516 99.8C82.6516 97.6667 83.2182 96 83.7516 94.8C84.5516 92.9333 85.5516 90.9333 86.7516 88.8C88.0182 86.6 89.2516 84.5333 90.4516 82.6C91.7182 80.6 92.7182 79 93.4516 77.8C93.9182 77.3333 94.1182 77.1 94.0516 77.1C94.0516 77.0333 94.0516 77 94.0516 77C94.0516 76.6667 94.3849 75.8333 95.0516 74.5C95.7849 73.1 96.4182 71.8667 96.9516 70.8C97.9516 69.7333 98.5182 68.8667 98.6516 68.2C98.7849 67.5333 98.6849 67 98.3516 66.6C98.2182 66.3333 98.4849 65.7667 99.1516 64.9C99.8849 64.0333 100.885 63.0667 102.152 62C103.418 60.8667 104.818 59.8667 106.352 59C107.952 57.7333 109.485 57.0667 110.952 57C112.485 56.8667 113.385 57.1667 113.652 57.9C113.652 58.1 114.018 58.1667 114.752 58.1C115.552 57.9667 116.452 57.8 117.452 57.6C118.518 57.3333 119.452 57.1333 120.252 57C120.585 56.6 121.352 56.3 122.552 56.1C123.818 55.8333 125.285 55.6 126.952 55.4C127.818 55.4667 128.785 55.5 129.852 55.5C130.918 55.4333 131.852 55.3667 132.652 55.3C133.518 55.2333 133.952 55.2 133.952 55.2C134.418 55.0667 135.085 55.3667 135.952 56.1C136.885 56.7667 137.618 57.7 138.152 58.9C138.618 60.1 138.218 61.1333 136.952 62C135.685 62.8667 133.685 63.4667 130.952 63.8C128.952 64.0667 127.385 64.3 126.252 64.5C125.185 64.6333 124.018 64.8333 122.752 65.1C121.552 65.3 119.785 65.6667 117.452 66.2C115.785 66.5333 114.385 66.8 113.252 67C112.118 67.2 111.118 67.6 110.252 68.2C109.452 68.8 108.552 69.8667 107.552 71.4C107.085 71.7333 106.485 72.6 105.752 74C105.018 75.4 104.285 76.8 103.552 78.2C101.685 80.8 100.285 82.7333 99.3516 84C98.4849 85.2 98.1849 85.9667 98.4516 86.3C98.4516 86.3 98.9182 86.4 99.8516 86.6C100.785 86.8 101.385 86.9 101.652 86.9C102.318 86.5667 103.118 86.3333 104.052 86.2C105.052 86.0667 105.852 85.9333 106.452 85.8C110.585 84.7333 113.618 83.9667 115.552 83.5C117.552 82.9667 118.952 82.6 119.752 82.4C120.618 82.2 121.385 82.0667 122.052 82C122.985 81.2667 123.918 81.3333 124.852 82.2C125.852 83 126.552 83.9667 126.952 85.1C127.418 86.4333 127.418 87.4667 126.952 88.2C126.485 88.9333 125.452 89.5333 123.852 90C122.318 90.4667 120.118 91.0333 117.252 91.7C114.385 92.3 110.785 93.2 106.452 94.4C102.785 95.4667 99.8182 96.1 97.5516 96.3C95.2849 96.5 94.2182 95.9333 94.3516 94.6C93.8849 94.3333 93.3516 94.6 92.7516 95.4C92.2182 96.1333 91.7182 97.1667 91.2516 98.5C90.7849 99.8333 90.3516 101.267 89.9516 102.8C89.6182 104.333 89.4182 105.767 89.3516 107.1C89.2849 108.433 89.3849 109.467 89.6516 110.2C90.1849 111.733 91.0182 113.067 92.1516 114.2C93.3516 115.267 95.0849 116.133 97.3516 116.8C98.6849 116.867 99.9849 116.967 101.252 117.1C102.518 117.233 103.952 116.967 105.552 116.3C109.485 115.633 112.218 114.933 113.752 114.2C115.285 113.467 116.218 112.967 116.552 112.7C117.085 112.433 117.418 112.167 117.552 111.9C117.752 111.633 118.018 111.5 118.352 111.5C118.152 111.833 118.218 111.833 118.552 111.5C118.885 111.167 119.418 110.7 120.152 110.1C121.552 108.9 122.952 108.167 124.352 107.9C125.752 107.633 126.918 107.633 127.852 107.9C128.785 108.1 129.285 108.367 129.352 108.7C129.752 109.367 129.552 110.433 128.752 111.9C127.952 113.3 126.718 114.8 125.052 116.4C123.452 118 121.552 119.433 119.352 120.7C115.818 122.567 111.985 123.867 107.852 124.6C103.718 125.4 100.018 125.833 96.7516 125.9ZM156.716 127C154.05 127 151.65 126.833 149.516 126.5C147.45 126.233 145.55 125.433 143.816 124.1C141.75 122.567 140.283 120.367 139.416 117.5C138.616 114.567 138.85 110.733 140.116 106C140.45 104.333 140.816 102.867 141.216 101.6C141.683 100.333 142.083 99.7 142.416 99.7C142.483 99.3667 142.583 98.9 142.716 98.3C142.85 97.6333 142.983 96.8667 143.116 96C143.45 94.8 143.683 93.9333 143.816 93.4C143.95 92.8 144.216 92.3 144.616 91.9C144.816 91.7667 145.05 91.3333 145.316 90.6C145.583 89.8 145.75 89.3333 145.816 89.2C145.816 89.2 145.85 88.9667 145.916 88.5C145.983 87.9667 146.15 87.3667 146.416 86.7C147.416 85.0333 147.916 83.9333 147.916 83.4C148.05 83.1333 148.316 82.7333 148.716 82.2C149.183 81.6667 149.55 80.9667 149.816 80.1C151.816 76.5667 153.45 73.6667 154.716 71.4C155.983 69.0667 156.75 67.2667 157.016 66C157.35 65.2667 157.65 64.4 157.916 63.4C158.25 62.3333 158.65 61.5333 159.116 61C158.983 60.6667 159.35 60.3 160.216 59.9C161.15 59.5 162.35 59.0667 163.816 58.6C165.283 58.1333 166.85 57.7333 168.516 57.4C170.183 57.0667 171.716 56.8667 173.116 56.8C173.516 56.5333 174.383 56.3333 175.716 56.2C177.116 56.0667 178.716 56 180.516 56C182.316 56 183.983 56.0667 185.516 56.2C186.983 56.2 188.15 56.4 189.016 56.8C189.883 57.2 190.75 57.6 191.616 58C191.95 58.3333 192.416 58.8 193.016 59.4C193.616 60 193.983 60.6333 194.116 61.3C194.316 61.9667 193.883 62.5667 192.816 63.1C192.616 63.3 191.516 63.4667 189.516 63.6C187.516 63.7333 185.416 63.8 183.216 63.8C180.75 63.8 178.616 64 176.816 64.4C175.016 64.8 173.75 65 173.016 65C172.083 65.2667 170.983 65.4333 169.716 65.5C168.45 65.5667 167.816 65.6 167.816 65.6C167.683 65.6 167.35 66 166.816 66.8C166.283 67.5333 165.683 68.4333 165.016 69.5C164.416 70.5 163.85 71.4333 163.316 72.3C162.85 73.1667 162.616 73.7 162.616 73.9C162.616 74.5667 162.35 75.3 161.816 76.1C161.283 76.9 160.65 77.8333 159.916 78.9C159.25 79.7667 158.816 80.7 158.616 81.7C158.416 82.6333 158.616 83.2333 159.216 83.5C160.283 83.3 161.75 83.1 163.616 82.9C165.55 82.7 167.45 82.5333 169.316 82.4C171.183 82.2 172.616 82.1 173.616 82.1C174.75 81.7667 175.683 81.7 176.416 81.9C177.15 82.1 177.683 82.3 178.016 82.5C178.816 82.6333 179.283 83.0333 179.416 83.7C179.616 84.3667 179.616 85.0333 179.416 85.7C179.216 86.3667 178.883 86.8 178.416 87C178.016 87.4 177.016 87.8667 175.416 88.4C173.816 88.9333 171.916 89.4667 169.716 90C167.583 90.5333 165.416 91.0333 163.216 91.5C161.083 91.9 159.216 92.2333 157.616 92.5C156.083 92.7667 155.183 92.8667 154.916 92.8C154.516 91.8667 154.05 91.9 153.516 92.9C153.05 93.8333 152.483 95.7667 151.816 98.7C151.083 100.367 150.516 101.633 150.116 102.5C149.783 103.3 149.516 104.2 149.316 105.2C149.116 106.133 148.816 107.633 148.416 109.7C147.95 111.5 147.983 113.133 148.516 114.6C149.116 116 150.483 117.2 152.616 118.2C153.95 118.467 155.483 118.567 157.216 118.5C158.95 118.433 161.25 118.033 164.116 117.3C165.316 116.567 166.516 115.9 167.716 115.3C168.916 114.633 169.75 114.167 170.216 113.9C170.55 113.9 171.05 113.767 171.716 113.5C172.45 113.167 172.95 113 173.216 113C173.75 112.267 174.416 111.9 175.216 111.9C175.35 111.9 175.716 112.2 176.316 112.8C176.983 113.4 177.616 114.167 178.216 115.1C178.816 116.033 179.116 117 179.116 118C179.116 118.667 177.983 119.533 175.716 120.6C173.516 121.667 170.75 122.867 167.416 124.2C165.75 124.933 164.383 125.5 163.316 125.9C162.316 126.3 161.35 126.567 160.416 126.7C159.483 126.9 158.25 127 156.716 127ZM208.18 126.2C207.914 126.467 207.614 126.567 207.28 126.5C206.947 126.5 206.414 126.333 205.68 126C204.414 125.667 203.28 124.933 202.28 123.8C201.347 122.667 201.214 121.367 201.88 119.9C202.147 119.433 202.48 118.433 202.88 116.9C203.347 115.3 203.847 113.467 204.38 111.4C204.914 109.333 205.447 107.267 205.98 105.2C206.514 103.133 206.98 101.333 207.38 99.8C207.78 98.2 208.047 97.1333 208.18 96.6C208.18 96.0667 208.314 95 208.58 93.4C208.914 91.8 209.214 90 209.48 88C210.214 86.6 210.714 85.0667 210.98 83.4C211.314 81.7333 211.547 80.5333 211.68 79.8C211.947 78.7333 212.247 77.6 212.58 76.4C212.98 75.2 213.314 74 213.58 72.8C213.847 71.7333 214.114 70.6333 214.38 69.5C214.714 68.3667 214.88 67.6333 214.88 67.3V65.7H211.18C210.18 65.7667 209.047 65.7667 207.78 65.7C206.514 65.6333 205.114 65.6 203.58 65.6C200.447 65.4667 198.347 65.1667 197.28 64.7C196.28 64.1667 195.714 63.1667 195.58 61.7C195.447 60.9 195.614 60.2 196.08 59.6C196.547 58.9333 197.647 58.4 199.38 58C201.114 57.6 203.78 57.4667 207.38 57.6C210.18 57.4667 212.38 57.4667 213.98 57.6C215.58 57.6667 216.514 57.7 216.78 57.7C217.047 57.4333 217.214 57.1667 217.28 56.9C217.347 56.6333 217.447 56.3667 217.58 56.1C217.58 55.7667 217.614 55.4 217.68 55C217.814 54.5333 218.147 54.2 218.68 54C219.214 53 220.214 52.6 221.68 52.8C223.214 52.9333 224.347 53.5333 225.08 54.6C225.347 55.2 225.414 55.8333 225.28 56.5C225.214 57.1667 225.414 57.7667 225.88 58.3C226.147 58.0333 226.847 57.8667 227.98 57.8C229.114 57.7333 230.314 57.6667 231.58 57.6C233.114 57.6 234.48 57.5667 235.68 57.5C236.88 57.3667 237.714 57.3 238.18 57.3C238.78 56.9667 239.547 56.8 240.48 56.8C241.48 56.8 242.48 56.8667 243.48 57C245.014 57 246.08 57.4 246.68 58.2C247.347 58.9333 247.78 59.4667 247.98 59.8C247.98 60.0667 247.98 60.3333 247.98 60.6C248.047 60.8667 248.214 61.1333 248.48 61.4C248.747 61.6667 248.88 61.8667 248.88 62C248.88 62.0667 248.747 62.3667 248.48 62.9C248.214 63.1667 247.747 63.4 247.08 63.6C246.414 63.7333 245.68 63.8 244.88 63.8C244.414 63.8 243.614 63.8667 242.48 64C241.347 64.0667 240.38 64.1 239.58 64.1C238.047 64.3667 236.547 64.6 235.08 64.8C233.614 64.9333 231.714 65.0667 229.38 65.2C228.38 65.2 227.447 65.2667 226.58 65.4C225.714 65.4667 225.28 65.6667 225.28 66C225.014 66 224.647 66.7 224.18 68.1C223.78 69.5 223.38 70.9667 222.98 72.5C222.58 74.2333 222.147 75.7333 221.68 77C221.28 78.2667 220.947 79.1 220.68 79.5C220.947 79.7667 221.047 80.1 220.98 80.5C220.98 80.9 220.78 81.6 220.38 82.6C220.114 83.5333 219.847 84.2667 219.58 84.8C219.38 85.3333 219.28 85.8667 219.28 86.4C219.28 86.4 219.114 86.9333 218.78 88C218.514 89 218.247 90.2667 217.98 91.8C217.847 93.2667 217.647 94.5 217.38 95.5C217.18 96.5 216.947 97.1333 216.68 97.4C216.68 97.4 216.547 97.6333 216.28 98.1C216.014 98.5 215.88 98.9667 215.88 99.5C215.88 100.1 215.747 101.1 215.48 102.5C215.28 103.833 215.047 105.1 214.78 106.3C214.514 107.5 214.28 108.167 214.08 108.3C214.747 108.433 214.647 109.333 213.78 111C213.78 111.667 213.68 112.333 213.48 113C213.28 113.667 213.18 114.133 213.18 114.4C212.78 115.667 212.214 117.2 211.48 119C210.747 120.8 210.047 122.4 209.38 123.8C208.78 125.2 208.38 126 208.18 126.2ZM248.781 124.9C248.648 124.967 248.348 125 247.881 125C247.481 125.067 246.715 125.067 245.581 125C244.515 124.933 242.815 124.867 240.481 124.8C235.081 124.2 232.281 123.867 232.081 123.8C232.081 123.8 231.981 123.767 231.781 123.7C231.648 123.633 231.315 123.367 230.781 122.9C230.115 122.7 229.548 122.267 229.081 121.6C228.615 120.867 228.281 120.1 228.081 119.3C227.881 118.5 227.848 117.867 227.981 117.4C228.048 117.2 228.481 117 229.281 116.8C230.081 116.533 230.881 116.467 231.681 116.6C232.881 116.333 233.981 116.167 234.981 116.1C236.048 116.033 237.048 115.9 237.981 115.7C238.648 115.367 239.348 115.167 240.081 115.1C240.815 115.033 241.448 114.9 241.981 114.7C242.515 114.767 242.915 114.367 243.181 113.5C243.515 112.567 243.981 111.333 244.581 109.8C244.781 109.2 245.181 108.1 245.781 106.5C246.381 104.833 247.015 103.067 247.681 101.2C248.415 99.2667 249.015 97.6 249.481 96.2C250.015 94.7333 250.281 93.9333 250.281 93.8C250.215 93.1333 250.281 92.4667 250.481 91.8C250.748 91.0667 250.881 90.5 250.881 90.1C251.081 89.8333 251.348 89.1 251.681 87.9C252.081 86.6333 252.648 85.1333 253.381 83.4C253.781 82.4667 254.248 81.3 254.781 79.9C255.381 78.4333 255.881 77.0667 256.281 75.8C256.748 74.5333 256.981 73.7667 256.981 73.5C257.581 72.2333 258.148 71.0333 258.681 69.9C259.281 68.7667 259.581 68.0667 259.581 67.8C259.581 67.8 258.981 67.8333 257.781 67.9C256.581 67.9 255.415 67.8667 254.281 67.8C252.815 67.8667 251.348 67.8 249.881 67.6C248.481 67.3333 247.248 67 246.181 66.6C245.115 66.1333 244.448 65.7 244.181 65.3C243.715 64.5667 243.648 64 243.981 63.6C244.315 63.1333 244.715 62.6 245.181 62C245.315 61.4667 246.115 61.1333 247.581 61C249.115 60.8 251.015 60.6667 253.281 60.6C256.548 60.6667 258.848 60.6667 260.181 60.6C261.581 60.5333 262.315 60.3667 262.381 60.1C262.715 60.1 263.048 60.1 263.381 60.1C263.715 60.0333 264.115 59.9667 264.581 59.9C265.115 59.9 266.215 59.7 267.881 59.3C269.548 58.8333 270.948 58.4333 272.081 58.1C274.081 57.6333 275.915 57.3333 277.581 57.2C279.248 57 280.215 56.9 280.481 56.9C281.881 56.7 283.015 57 283.881 57.8C284.748 58.5333 285.148 59.6667 285.081 61.2C285.081 61.6667 284.681 62.0667 283.881 62.4C283.081 62.7333 281.581 63.0333 279.381 63.3C278.115 63.5 277.015 63.7667 276.081 64.1C275.148 64.3667 274.348 64.6 273.681 64.8C272.681 65.1333 272.048 65.3333 271.781 65.4C271.581 65.4667 271.315 65.5667 270.981 65.7C270.448 65.7 269.981 66.0333 269.581 66.7C269.248 67.3667 268.915 68.2667 268.581 69.4C268.581 69.4 268.481 69.5 268.281 69.7C268.081 69.8333 267.981 69.9667 267.981 70.1C267.981 70.3 267.815 70.5 267.481 70.7C267.215 70.9 266.948 71.3667 266.681 72.1C266.681 72.5 266.415 73.3667 265.881 74.7C265.348 76.0333 264.815 77.5333 264.281 79.2C263.748 80.8667 263.415 82.3667 263.281 83.7C262.481 85.6333 261.748 87.5333 261.081 89.4C260.415 91.2 260.048 92.6 259.981 93.6C259.781 93.8667 259.448 94.6333 258.981 95.9C258.581 97.1 258.115 98.5 257.581 100.1C257.048 101.633 256.548 103 256.081 104.2C255.615 105.4 255.281 106.067 255.081 106.2C254.815 106.467 254.648 106.833 254.581 107.3C254.515 107.7 254.448 108.067 254.381 108.4C254.115 109.333 253.848 110.367 253.581 111.5C253.381 112.633 253.381 113.433 253.581 113.9C253.981 113.9 254.648 113.9 255.581 113.9C256.581 113.9 257.581 113.867 258.581 113.8C259.648 113.733 260.448 113.633 260.981 113.5C263.315 113.367 264.948 113.3 265.881 113.3C266.881 113.3 267.515 113.367 267.781 113.5C268.115 113.567 268.348 113.633 268.481 113.7C268.615 113.767 268.948 113.767 269.481 113.7C270.481 113.567 271.315 113.767 271.981 114.3C272.648 114.833 273.248 115.7 273.781 116.9C274.048 117.433 273.881 118.067 273.281 118.8C272.748 119.533 272.181 120.033 271.581 120.3C271.381 120.433 270.915 120.6 270.181 120.8C269.515 120.933 268.848 120.967 268.181 120.9C266.715 120.9 265.448 120.9 264.381 120.9C263.381 120.833 262.381 120.8 261.381 120.8C260.381 120.8 259.115 120.8 257.581 120.8C257.048 120.733 256.515 120.733 255.981 120.8C255.448 120.867 255.048 120.9 254.781 120.9C254.381 120.767 253.915 120.767 253.381 120.9C252.848 121.033 252.115 121.133 251.181 121.2C250.781 121.4 250.448 121.533 250.181 121.6C249.981 121.667 249.815 121.967 249.681 122.5C249.681 122.767 249.548 123.167 249.281 123.7C249.015 124.233 248.848 124.633 248.781 124.9ZM278.799 122.3C278.266 121.767 277.833 120.967 277.499 119.9C277.233 118.833 277.099 117.7 277.099 116.5C277.166 115.233 277.399 114.2 277.799 113.4C278.133 112.8 278.399 112.033 278.599 111.1C278.799 110.1 278.933 109.167 278.999 108.3C279.533 106.167 280.166 103.967 280.899 101.7C281.699 99.3667 282.533 96.8667 283.399 94.2C284.599 90.5333 285.633 87.3333 286.499 84.6C287.366 81.8667 288.233 79.2667 289.099 76.8C289.966 74.2667 290.966 71.6 292.099 68.8C292.299 68.4667 292.499 68.0667 292.699 67.6C292.966 67.0667 293.166 66.5333 293.299 66C293.499 65.4 293.566 64.9 293.499 64.5C293.699 63.4333 293.966 62.5667 294.299 61.9C294.699 61.1667 295.033 60.6667 295.299 60.4C296.033 59.5333 296.833 58.8333 297.699 58.3C298.566 57.7 299.266 57.5333 299.799 57.8C300.733 58.0667 301.733 58.5333 302.799 59.2C303.933 59.8 304.866 61.0667 305.599 63C305.999 63.6 306.366 64.2333 306.699 64.9C307.033 65.5 307.266 66.2 307.399 67C307.533 67.8 307.499 68.8 307.299 70C307.499 72.9333 307.866 75.9333 308.399 79C308.999 82.0667 309.233 84.8667 309.099 87.4C309.099 88.5333 309.099 90.0333 309.099 91.9C309.099 93.7667 309.099 95.7 309.099 97.7C309.166 99.6333 309.266 101.333 309.399 102.8C309.599 104.2 309.899 105.033 310.299 105.3C310.433 105.367 310.499 105.533 310.499 105.8C310.499 106 310.533 106.1 310.599 106.1C310.666 106.1 310.766 105.833 310.899 105.3C311.099 104.7 311.399 103.667 311.799 102.2C312.199 100.867 312.833 99.5333 313.699 98.2C314.633 96.8 315.333 94.9 315.799 92.5C316.666 90.3 317.366 88.3667 317.899 86.7C318.499 85.0333 319.066 83.3333 319.599 81.6C320.133 79.8667 320.766 77.9333 321.499 75.8C321.633 75.2 321.866 74.4667 322.199 73.6C322.599 72.6667 323.033 71.7 323.499 70.7C323.966 69.6333 324.466 68.6667 324.999 67.8C325.666 66.4667 326.399 65.1 327.199 63.7C327.999 62.3 328.399 61.4667 328.399 61.2C328.399 61.2 328.399 61.0333 328.399 60.7C328.399 60.3 328.533 59.9667 328.799 59.7C329.133 59.4333 329.566 59.1333 330.099 58.8C330.633 58.4667 330.999 57.8667 331.199 57C331.533 56.7333 332.166 56.3667 333.099 55.9C334.033 55.4333 334.799 55.3333 335.399 55.6C335.799 55.9333 336.199 56.3 336.599 56.7C337.066 57.1 337.366 57.6667 337.499 58.4C337.699 59.1333 337.533 60.2 336.999 61.6C336.799 63 336.499 64.2 336.099 65.2C335.766 66.1333 335.433 66.8667 335.099 67.4C334.833 68.0667 334.533 68.8667 334.199 69.8C333.933 70.6667 333.633 71.4667 333.299 72.2C333.033 73.4 332.799 74.3667 332.599 75.1C332.466 75.8333 332.399 76.3333 332.399 76.6C332.399 76.6 332.166 76.9333 331.699 77.6C331.299 78.2667 330.799 79.1 330.199 80.1C329.266 82.5 328.533 84.5333 327.999 86.2C327.466 87.8 326.999 89.2 326.599 90.4C326.199 91.6 325.799 92.8333 325.399 94.1C324.999 95.3 324.466 96.7 323.799 98.3C323.733 99.2333 323.566 100.1 323.299 100.9C323.033 101.633 322.733 102.267 322.399 102.8C322.066 103.333 321.799 103.767 321.599 104.1C321.399 104.367 321.299 104.5 321.299 104.5C319.633 107.3 318.199 109.933 316.999 112.4C315.799 114.8 314.999 116.333 314.599 117C314.266 117.533 313.933 117.967 313.599 118.3C313.266 118.567 312.933 118.767 312.599 118.9C312.333 118.967 312.033 119.033 311.699 119.1C311.433 119.167 311.099 119.2 310.699 119.2C309.499 119.333 308.399 118.967 307.399 118.1C306.399 117.167 305.433 115.7 304.499 113.7C303.299 111.233 302.233 108.1 301.299 104.3C300.433 100.433 299.933 96.3667 299.799 92.1C299.799 91.5667 299.799 90.9667 299.799 90.3C299.799 89.6333 299.766 88.9667 299.699 88.3C299.699 87.6333 299.666 87.0667 299.599 86.6C299.599 86.0667 299.599 84.7333 299.599 82.6C299.599 80.4667 299.533 77.8667 299.399 74.8C298.533 76.6 297.766 78.7667 297.099 81.3C296.433 83.8333 295.733 86.3667 294.999 88.9C294.266 91.3667 293.299 93.5667 292.099 95.5C291.966 96.8333 291.766 98.0333 291.499 99.1C291.233 100.167 290.966 101.1 290.699 101.9C290.499 102.633 290.266 103.167 289.999 103.5C289.533 104.833 289.133 106.4 288.799 108.2C288.533 110 288.266 111.333 287.999 112.2C287.999 112.867 287.799 113.833 287.399 115.1C287.066 116.3 286.699 117.533 286.299 118.8C285.899 120 285.599 120.933 285.399 121.6C285.066 122.4 284.466 123.033 283.599 123.5C282.733 123.967 281.833 124.133 280.899 124C279.966 123.867 279.266 123.3 278.799 122.3ZM340.119 126.6C338.319 125.267 336.919 123.367 335.919 120.9C334.985 118.367 334.552 116.033 334.619 113.9C334.552 109.767 334.885 105.5 335.619 101.1C336.419 96.7 337.452 92.6 338.719 88.8C339.585 86.4 340.519 83.9667 341.519 81.5C342.519 79.0333 343.552 76.7 344.619 74.5C345.685 72.2333 346.719 70.3333 347.719 68.8C349.785 65.2667 351.885 62.4333 354.019 60.3C356.219 58.1667 357.885 56.7667 359.019 56.1C360.885 55.1667 363.119 54.4667 365.719 54C368.319 53.4667 370.852 53.4667 373.319 54C375.052 54.4667 376.752 55.1333 378.419 56C380.152 56.8667 381.652 57.9333 382.919 59.2C383.652 59.8667 384.219 60.5667 384.619 61.3C385.019 62.0333 385.219 62.8 385.219 63.6C385.219 64.6 384.752 65.5667 383.819 66.5C382.885 67.4333 381.852 68.0667 380.719 68.4C379.585 68.7333 378.719 68.5333 378.119 67.8C377.252 66.4667 376.419 65.4667 375.619 64.8C374.819 64.0667 373.985 63.5333 373.119 63.2C372.385 62.7333 371.385 62.5 370.119 62.5C368.919 62.5 367.619 62.7333 366.219 63.2C364.819 63.6 363.485 64.3333 362.219 65.4C361.752 65.8 361.119 66.3667 360.319 67.1C359.585 67.8333 358.785 68.7333 357.919 69.8C357.119 70.8 356.385 71.9 355.719 73.1C353.852 76.1667 352.252 79.3 350.919 82.5C349.652 85.6333 348.519 89.0667 347.519 92.8C347.052 94.3333 346.552 96.2333 346.019 98.5C345.485 100.7 344.985 102.9 344.519 105.1C344.119 107.3 343.852 109.233 343.719 110.9C343.519 113.233 343.585 115.067 343.919 116.4C344.252 117.733 344.952 118.633 346.019 119.1C347.085 119.5 348.585 119.467 350.519 119C352.252 118.6 353.985 117.933 355.719 117C357.519 116 359.252 114.767 360.919 113.3C362.585 111.767 364.085 109.967 365.419 107.9C366.619 105.633 367.585 103.567 368.319 101.7C369.119 99.8333 369.519 98.3667 369.519 97.3C369.585 96.1667 369.019 95.6333 367.819 95.7C365.085 95.7667 362.885 95.6667 361.219 95.4C359.619 95.1333 358.519 94.4667 357.919 93.4C357.052 93.2 356.585 92.4667 356.519 91.2C356.519 89.9333 357.152 88.9 358.419 88.1C359.552 87.5 361.119 87.1333 363.119 87C365.119 86.8667 367.152 86.9333 369.219 87.2C371.352 87.4 373.052 87.8667 374.319 88.6C375.785 89.3333 376.785 90.4333 377.319 91.9C377.919 93.3 378.219 94.8 378.219 96.4C378.285 98 378.185 99.5 377.919 100.9C377.319 103.233 376.485 105.5 375.419 107.7C374.419 109.9 373.052 112.133 371.319 114.4C370.319 115.8 368.952 117.267 367.219 118.8C365.485 120.333 363.652 121.7 361.719 122.9C359.852 124.167 358.085 125.167 356.419 125.9C353.752 127.1 350.952 127.967 348.019 128.5C345.152 129.033 342.519 128.4 340.119 126.6Z" fill="black"/>
</svg>
